<?xml version="1.0" encoding="UTF-8"?>
<svg width="220px" height="54px" viewBox="0 0 220 54" version="1.1" xmlns="http://www.w3.org/2000/svg" xmlns:xlink="http://www.w3.org/1999/xlink">
    <!-- Generator: Sketch 63.1 (92452) - https://sketch.com -->
    <title>matstart</title>
    <desc>Created with Sketch.</desc>
    <g id="Page-1" stroke="none" stroke-width="1" fill="none" fill-rule="evenodd">
        <g id="matstart">
            <g id="Group" transform="translate(61.000000, 13.000000)" fill="#000000" fill-rule="nonzero">
                <polygon id="Path" points="24.9 27.8 24.9 10 17.9 27.9 13 27.9 6 10.3 6 27.9 0.3 27.9 0.3 0.9 8.1 0.9 15.5 19.1 22.5 0.9 30.7 0.9 30.7 27.8"></polygon>
                <path d="M40.6,16.9 L45,16.2 C46,16 46.4,15.6 46.4,14.9 C46.4,13.8 45.5,12.8 43.6,12.8 C41.6,12.8 40.5,14.2 40.4,15.6 L35.4,14.6 C35.6,11.9 38.1,8.3 43.7,8.3 C49.8,8.3 52.1,11.7 52.1,15.6 L52.1,24.8 C52.1,26.3 52.3,27.5 52.3,27.7 L47.1,27.7 C47.1,27.5 46.9,26.9 46.9,25.6 C45.9,27.2 44.1,28.3 41.6,28.3 C37.5,28.3 35.1,25.6 35.1,22.6 C35.1,19.3 37.5,17.4 40.6,16.9 Z M46.4,20.4 L46.4,19.6 L42.8,20.2 C41.6,20.4 40.7,21 40.7,22.3 C40.7,23.3 41.3,24.2 42.9,24.2 C44.7,24.2 46.4,23.4 46.4,20.4 Z" id="Shape"></path>
                <path d="M63.7,9 L67.4,9 L67.4,14 L63.7,14 L63.7,21.1 C63.7,22.7 64.5,23.1 65.8,23.1 C66.4,23.1 67,23 67.3,22.9 L67.3,27.7 C67.1,27.8 66.1,28.2 64.3,28.2 C60.4,28.2 58,25.9 58,22.1 L58,14 L54.7,14 L54.7,9 L55.7,9 C57.7,9 58.6,7.7 58.6,5.9 L58.6,3.5 L63.8,3.5 L63.8,9 L63.7,9 Z" id="Path"></path>
                <path d="M86.3,9 C86.1,7.7 85.1,5.6 81.8,5.6 C79.6,5.6 78.1,7 78.1,8.5 C78.1,9.8 78.9,10.7 80.8,11.1 L84.4,11.8 C89.5,12.7 92.2,16.1 92.2,19.9 C92.2,24.1 88.7,28.4 82.2,28.4 C74.8,28.4 71.6,23.6 71.2,19.8 L76.7,18.5 C76.9,21 78.6,23.1 82.3,23.1 C84.7,23.1 86.1,22 86.1,20.3 C86.1,18.9 85,17.9 83.2,17.6 L79.5,16.9 C74.9,16 72.2,13 72.2,9 C72.2,3.9 76.7,0.3 81.9,0.3 C88.6,0.3 91.2,4.3 91.7,7.5 L86.3,9 Z" id="Path"></path>
                <path d="M103.3,9 L107,9 L107,14 L103.3,14 L103.3,21.1 C103.3,22.7 104.1,23.1 105.4,23.1 C106,23.1 106.6,23 106.9,22.9 L106.9,27.7 C106.7,27.8 105.7,28.2 103.9,28.2 C100,28.2 97.6,25.9 97.6,22.1 L97.6,14 L94.3,14 L94.3,9 L95.3,9 C97.3,9 98.2,7.7 98.2,5.9 L98.2,3.5 L103.4,3.5 L103.4,9 L103.3,9 Z" id="Path"></path>
                <path d="M115.7,16.9 L120.1,16.2 C121.1,16 121.5,15.6 121.5,14.9 C121.5,13.8 120.6,12.8 118.7,12.8 C116.7,12.8 115.6,14.2 115.5,15.6 L110.5,14.6 C110.7,11.9 113.2,8.3 118.8,8.3 C124.9,8.3 127.2,11.7 127.2,15.6 L127.2,24.8 C127.2,26.3 127.4,27.5 127.4,27.7 L122.2,27.7 C122.2,27.5 122,26.9 122,25.6 C121,27.2 119.2,28.3 116.7,28.3 C112.6,28.3 110.2,25.6 110.2,22.6 C110.1,19.3 112.6,17.4 115.7,16.9 Z M121.5,20.4 L121.5,19.6 L117.9,20.2 C116.7,20.4 115.8,21 115.8,22.3 C115.8,23.3 116.4,24.2 118,24.2 C119.8,24.2 121.5,23.4 121.5,20.4 Z" id="Shape"></path>
                <path d="M144,14.7 C143.4,14.5 142.7,14.5 142.2,14.5 C139.9,14.5 137.8,15.9 137.8,19.6 L137.8,27.8 L132,27.8 L132,9 L137.6,9 L137.6,11.5 C138.6,9.4 141,8.8 142.5,8.8 C143.1,8.8 143.6,8.9 144,9 L144,14.7 Z" id="Path"></path>
                <path d="M155.1,9 L158.8,9 L158.8,14 L155.1,14 L155.1,21.1 C155.1,22.7 155.9,23.1 157.2,23.1 C157.8,23.1 158.4,23 158.7,22.9 L158.7,27.7 C158.5,27.8 157.5,28.2 155.7,28.2 C151.8,28.2 149.4,25.9 149.4,22.1 L149.4,14 L146,14 L146,9 L147,9 C149,9 149.9,7.7 149.9,5.9 L149.9,3.5 L155.1,3.5 L155.1,9 Z" id="Path"></path>
            </g>
            <polygon id="Path" points="23.4 27 11.7 47.3 11.7 47.3"></polygon>
            <polygon id="Path" fill="#FFE875" fill-rule="nonzero" points="23.4 0 23.4 0 11.7 6.8 23.4 27"></polygon>
            <polygon id="Path" fill="#FFDB5C" fill-rule="nonzero" points="11.7 6.8 0 13.5 23.4 27"></polygon>
            <polygon id="Path" fill="#FCC65B" fill-rule="nonzero" points="0 13.5 0 13.5 0 27 23.4 27"></polygon>
            <polygon id="Path" fill="#EB7744" fill-rule="nonzero" points="0 27 0 40.5 0 40.5 23.4 27"></polygon>
            <polygon id="Path" fill="#EF8C56" fill-rule="nonzero" points="0 40.5 11.7 47.3 23.4 27"></polygon>
            <polygon id="Path" fill="#EB7744" fill-rule="nonzero" points="11.7 47.3 23.4 54 35.1 47.3 23.4 27"></polygon>
            <polygon id="Path" fill="#EF8C56" fill-rule="nonzero" points="35.1 47.3 46.8 40.5 23.4 27"></polygon>
            <polygon id="Path" fill="#EF8C56" fill-rule="nonzero" points="23.4 27 23.4 27 35.1 47.3 35.1 47.3"></polygon>
            <polygon id="Path" fill="#EB7744" fill-rule="nonzero" points="23.4 27 46.8 40.5 46.8 40.5 46.8 27"></polygon>
            <polygon id="Path" fill="#FCC65B" fill-rule="nonzero" points="46.8 13.5 23.4 27 23.4 27 46.8 27"></polygon>
            <polygon id="Path" fill="#FFDB5C" fill-rule="nonzero" points="46.8 13.5 35.1 6.8 23.4 27"></polygon>
            <polygon id="Path" fill="#FFF48F" fill-rule="nonzero" points="35.1 6.8 23.4 0 23.4 27"></polygon>
        </g>
    </g>
</svg>